<?xml version="1.0" standalone="no"?><!DOCTYPE svg PUBLIC "-//W3C//DTD SVG 1.1//EN" "http://www.w3.org/Graphics/SVG/1.1/DTD/svg11.dtd"><svg t="1746017473995" class="icon" viewBox="0 0 1024 1024" version="1.1" xmlns="http://www.w3.org/2000/svg" p-id="7904" xmlns:xlink="http://www.w3.org/1999/xlink" width="200" height="200"><path d="M412.38528 412.38528l-147.38318222-147.38318222 5.43706074-5.43706075c82.9151763 0 118.83861333-7.37886815 155.34459259 28.35038815 38.44778667 39.22450963 40.19541333 107.57613037-13.39847111 124.46985482z" fill="#84E507" p-id="7905"></path><path d="M759.19208297 759.19208297l-93.4009363-93.4009363a367.0016 367.0016 0 0 0 97.09037036-212.04536889h94.17765927a349.52533333 349.52533333 0 0 1-97.86709333 305.44630519zM814.53359408 337.23733333a74.17704297 74.17704297 0 0 1-19.41807408 0A38.83614815 38.83614815 0 0 1 764.43496297 298.40118518c-36.31179852 0-2.71853037 10.29157925-52.23461927-72.62359703A345.0591763 345.0591763 0 0 1 814.53359408 337.23733333z" fill="#2DE0C7" p-id="7906"></path><path d="M764.43496297 414.90962963a368.94340741 368.94340741 0 0 1-98.6438163 250.88151704l-252.43496297-252.43496297c52.23461925-16.31118222 53.01134222-84.08026075 13.01010963-124.46985481-36.31179852-35.92343703-72.4294163-28.35038815-155.34459258-28.35038814a349.52533333 349.52533333 0 0 1 441.76118517-33.98162964A365.05979259 365.05979259 0 0 1 764.43496297 414.90962963z" fill="#93E6D9" p-id="7907"></path><path d="M542.4863763 860.16606815a349.52533333 349.52533333 0 0 1-276.31919408-99.61472 368.94340741 368.94340741 0 0 0 176.70447408 19.41807407 125.63493925 125.63493925 0 0 0 99.61472 80.19664593zM759.19208297 759.19208297A349.52533333 349.52533333 0 0 1 589.6722963 852.7872v-124.27567408a358.06928592 358.06928592 0 0 0 76.11885037-62.72037925z" fill="#6163AA" p-id="7908"></path><path d="M665.79114667 665.79114667a368.94340741 368.94340741 0 0 1-399.62396445 94.76020148c-135.92651852-134.56725333-134.37307259-352.63222518-18.44717037-476.90789926 13.78683259-16.50536297 31.84564148-33.20490667 17.28208593-19.41807407z" fill="#898EC9" p-id="7909"></path><path d="M589.6722963 728.51152592c0 139.22759111 1.35926518 122.52804741 0 124.46985483-7.37886815 1.74762667-19.41807408 3.88361482-25.43767705 4.66033777-51.4578963 9.32067555-103.10997333-29.32129185-120.78042073-77.6722963A364.47725037 364.47725037 0 0 0 589.6722963 728.51152592z" fill="#513F89" p-id="7910"></path><path d="M589.6722963 647.92651852v80.5850074a364.47725037 364.47725037 0 0 1-146.80064 52.23461926c-15.92282075-38.83614815 0-56.89495703-22.71914667-79.80828443A48.54518518 48.54518518 0 0 0 385.78251852 686.76266667a48.54518518 48.54518518 0 0 1-48.54518519-48.54518519V531.41807408h135.92651852a116.50844445 116.50844445 0 0 1 116.50844445 116.50844444zM412.38528 412.38528A60.19602963 60.19602963 0 0 1 395.49155555 414.90962963a58.25422222 58.25422222 0 0 0-58.25422222 58.25422222v58.25422223l-58.25422222-58.25422223h-114.37245629A349.52533333 349.52533333 0 0 1 259.56503703 270.05079703c7.18468741-7.57304889-9.70903703-20.19479703 152.82024297 142.33448297z" fill="#68539B" p-id="7911"></path><path d="M762.29897482 453.74577778a365.44815408 365.44815408 0 0 0-17.28208593-155.3445926h19.41807408a38.83614815 38.83614815 0 0 0 31.06891851 38.83614815 83.69189925 83.69189925 0 0 0 19.41807407 0 331.2723437 331.2723437 0 0 1 40.0012326 104.8576 112.04228741 112.04228741 0 0 1 1.9418074 11.65084445z" fill="#69CC00" p-id="7912"></path><path d="M745.01688889 298.40118518a365.44815408 365.44815408 0 0 1 16.89372444 155.3445926H725.59881482a77.6722963 77.6722963 0 0 1 0-155.3445926zM856.67081482 453.74577778c-0.19418075-1.94180741-1.16508445-5.82542222 0 0z" fill="#84E507" p-id="7913"></path><path d="M1016.86992592 609.09037037a38.83614815 38.83614815 0 0 1-38.83614814 38.83614815h-143.69374815a38.83614815 38.83614815 0 0 1-19.41807408-65.43890963c13.98101333-14.36937482 30.68055703-11.4566637 46.79755853-11.45666371v-9.70903703a48.54518518 48.54518518 0 0 1 97.09037037 0V570.25422222h19.41807407A38.83614815 38.83614815 0 0 1 1016.86992592 609.09037037zM978.03377778 298.40118518a38.83614815 38.83614815 0 0 1-38.83614815 38.83614815h-143.69374815a38.83614815 38.83614815 0 0 1 7.76722963-77.6722963h19.41807407v-9.70903703a48.54518518 48.54518518 0 1 1 97.09037037 0v9.70903703h19.41807408a38.83614815 38.83614815 0 0 1 38.83614815 38.83614815z" fill="#FEF5E3" p-id="7914"></path><path d="M701.32622222 204.80606815a53.20552297 53.20552297 0 0 0-68.93416297 50.0986311 53.3997037 53.3997037 0 0 0-85.43952592 0 53.20552297 53.20552297 0 0 0-68.93416296-50.0986311A53.01134222 53.01134222 0 0 0 451.80397037 123.63851852a53.20552297 53.20552297 0 0 0 26.2144-81.16754963 53.20552297 53.20552297 0 0 0 68.93416296-50.09863111 53.3997037 53.3997037 0 0 0 85.43952592 0 53.20552297 53.20552297 0 0 0 68.93416297 50.09863111A53.20552297 53.20552297 0 0 0 727.54062222 123.63851852a53.20552297 53.20552297 0 0 0-26.2144 81.16754963z" fill="#FD8F07" p-id="7915"></path><path d="M589.6722963 123.63851852m-58.25422222 0a58.25422222 58.25422222 0 1 0 116.50844444 0 58.25422222 58.25422222 0 1 0-116.50844444 0Z" fill="#FED370" p-id="7916"></path><path d="M317.81925925 870.84600889A88.54641778 88.54641778 0 1 1 211.40821333 764.43496297 77.6722963 77.6722963 0 0 0 317.81925925 870.84600889z" fill="#FED370" p-id="7917"></path><path d="M783.85303703 698.60769185a349.52533333 349.52533333 0 0 0 24.66095408-41.94304A58.25422222 58.25422222 0 0 1 839.77709037 550.83614815 327.58290963 327.58290963 0 0 0 803.27111111 356.65540741a58.25422222 58.25422222 0 0 1-55.53569186-75.73048889 320.7865837 320.7865837 0 0 0-74.17704295-56.89495704 33.98162963 33.98162963 0 0 0-21.55406222 31.06891852 19.41807408 19.41807408 0 0 1-34.95253333 11.4566637 34.95253333 34.95253333 0 0 0-54.37060742 0 19.41807408 19.41807408 0 0 1-34.95253333-11.4566637 34.36999111 34.36999111 0 0 0-44.07902815-31.65146075 19.41807408 19.41807408 0 0 1-21.16570074-7.37886814c-9.5148563-13.20429037 1.55344592-23.10750815 4.2719763-31.06891852-153.20860445 21.16570075-186.41351111 123.11058963-215.54062223 93.98347852-11.65084445-11.84502518-4.07779555-25.2434963 8.5439526-35.72925629a368.94340741 368.94340741 0 0 1 225.63802074-99.03217779c19.41807408-1.74762667 24.07841185 19.41807408 21.16570073 40.19541334A73.40032 73.40032 0 0 1 557.82665482 220.72888889a76.50721185 76.50721185 0 0 1 63.8854637 0c13.01010963-24.27259259 46.02083555-44.27320889 63.30292148-35.14671407a355.15657482 355.15657482 0 0 1 100.97398518 79.41992296 19.41807408 19.41807408 0 0 1 0 22.71914667A19.41807408 19.41807408 0 0 0 803.27111111 317.81925925h11.26248297a19.41807408 19.41807408 0 0 1 16.89372444 9.90321778 365.64233482 365.64233482 0 0 1 44.27320889 246.02699852 19.41807408 19.41807408 0 0 1-19.41807408 15.92282075H842.10725925a19.41807408 19.41807408 0 0 0-3.8836148 38.83614815 19.41807408 19.41807408 0 0 1 13.98101333 26.60276147 364.47725037 364.47725037 0 0 1-36.31179853 66.02145186A19.41807408 19.41807408 0 0 1 783.85303703 698.60769185zM194.70866963 677.63617185c-16.6995437 0-21.35988148-17.86462815-29.90383408-40.19541333a368.94340741 368.94340741 0 0 1 43.3023052-334.18505482 19.41807408 19.41807408 0 0 1 26.99112295-4.85451852c32.4281837 22.52496592-36.31179852 45.82665482-51.26371555 176.89865482a330.10725925 330.10725925 0 0 0 28.1562074 174.76266667 19.41807408 19.41807408 0 0 1-17.28208592 27.57366518zM218.39872 734.91949037a19.41807408 19.41807408 0 0 1 31.06891852-23.30168889 328.55381333 328.55381333 0 0 0 289.52348445 129.32437334c4.66033778 25.63185778 4.07779555 25.63185778 1.9418074 0A330.10725925 330.10725925 0 0 0 745.01688889 745.01688889a19.41807408 19.41807408 0 0 1 28.35038814 26.40858074 368.94340741 368.94340741 0 0 1-231.26926221 107.77031112c-4.46615703-25.63185778-3.68943408-25.63185778-1.94180741 0a367.38996148 367.38996148 0 0 1-321.75748741-144.27629038z" fill="#35214C" p-id="7918"></path><path d="M856.67081482 473.16385185H725.59881482a97.09037037 97.09037037 0 0 1-97.09037037-97.09037037c0-66.02145185 49.51608889-42.33140148 41.36049777-17.08790518A58.25422222 58.25422222 0 0 0 725.59881482 434.3277037h107.18776888A315.73788445 315.73788445 0 0 0 803.27111111 356.65540741a58.25422222 58.25422222 0 0 1-54.75896889-38.83614816 126.8000237 126.8000237 0 0 0-39.80705185 2.52434964 19.41807408 19.41807408 0 0 1-11.65084445-36.89434074C713.55960889 278.98311111 720.55011555 278.98311111 764.43496297 278.98311111a19.41807408 19.41807408 0 0 1 19.41807406 19.41807407 19.41807408 19.41807408 0 0 0 15.53445927 19.41807407 71.07015111 71.07015111 0 0 0 15.14609778 0c14.17519408 0 19.41807408 12.42756741 25.82603851 26.2144a363.70052741 363.70052741 0 0 1 35.53507556 106.41104593 19.41807408 19.41807408 0 0 1-19.22389333 22.71914667zM542.4863763 879.58414222a141.94612148 141.94612148 0 0 1-84.85698371-41.16631704A145.24719408 145.24719408 0 0 1 414.90962963 735.30785185a28.93293037 28.93293037 0 0 0-29.12711111-29.1271111 67.96325925 67.96325925 0 0 1-67.96325927-67.96325927V531.41807408a19.41807408 19.41807408 0 0 1 19.41807408-19.41807408h38.83614815a19.41807408 19.41807408 0 0 1 0 38.83614815h-19.41807407v87.38133333a29.12711111 29.12711111 0 0 0 29.12711111 29.12711111 67.76907852 67.76907852 0 0 1 67.96325926 67.96325926 106.41104592 106.41104592 0 0 0 89.32314074 105.24596148c9.5148563 0 19.41807408-1.94180741 27.1853037-3.49525333V647.92651852a97.09037037 97.09037037 0 0 0-97.09037037-97.09037037h-19.41807407a19.41807408 19.41807408 0 0 1 0-38.83614815h19.41807407a135.92651852 135.92651852 0 0 1 135.92651852 135.92651852v204.86068148a19.41807408 19.41807408 0 0 1-14.95191704 19.41807408 327.58290963 327.58290963 0 0 1-51.65207703 7.37886814zM589.6722963 852.7872z" fill="#35214C" p-id="7919"></path><path d="M337.23733333 550.83614815c-10.67994075 0-8.93231408 0-66.79817481-58.25422223-115.14917925 0-112.62482963 2.33016889-120.39205927-6.40796444a19.41807408 19.41807408 0 0 1-4.66033777-15.14609778 366.0306963 366.0306963 0 0 1 62.72037927-167.77216A19.41807408 19.41807408 0 0 1 240.14696297 325.39230815 327.97127111 327.97127111 0 0 0 187.13562075 453.74577778H278.98311111c10.67994075 0 13.39847111 5.24288 38.83614814 31.06891852V473.16385185a77.6722963 77.6722963 0 0 1 77.6722963-77.6722963c41.16631703 0 54.17642667-55.34151111 16.11700148-93.98347852C381.31636148 271.60424297 348.11145482 278.98311111 278.98311111 278.98311111a19.41807408 19.41807408 0 0 1-27.1853037-27.76784593c13.98101333-14.36937482 3.88361482-11.06830222 105.44014222-11.06830221 133.98471111 0 158.45148445 194.18074075 38.83614815 194.18074073a38.83614815 38.83614815 0 0 0-38.83614815 38.83614815c-0.58254222 45.82665482 5.82542222 77.6722963-20.0006163 77.6722963zM880.94340741 900.36148148c-11.26248297 0-1.94180741 6.2137837-161.17001482-153.0144237a19.41807408 19.41807408 0 0 1 27.57366519-27.57366519l147.38318222 147.38318223A19.41807408 19.41807408 0 0 1 880.94340741 900.36148148z" fill="#35214C" p-id="7920"></path><path d="M678.8012563 698.21933037c-11.84502518 0 24.07841185 32.23400297-549.5314963-541.37590519a19.41807408 19.41807408 0 0 1 27.57366518-27.57366518L692.58808889 665.0144237a19.41807408 19.41807408 0 0 1-13.78683259 33.20490667zM589.6722963 201.31081482a77.6722963 77.6722963 0 0 1-77.6722963-86.99297185 19.41807408 19.41807408 0 0 1 38.83614815 9.32067555 38.83614815 38.83614815 0 1 0 38.83614815-38.83614815c-26.79694222 5.82542222-37.08852148-38.83614815 0-38.83614815a77.6722963 77.6722963 0 0 1 0 155.3445926z" fill="#35214C" p-id="7921"></path><path d="M527.53445925 255.09888a34.36999111 34.36999111 0 0 0-44.07902814-31.65146075 19.41807408 19.41807408 0 0 1-21.16570074-7.37886814c-11.84502518-16.50536297 6.2137837-22.13660445 6.21378371-41.94304a33.59326815 33.59326815 0 0 0-22.91332741-31.06891852 19.41807408 19.41807408 0 0 1 0-36.89434074 33.78744889 33.78744889 0 0 0 16.6995437-51.4578963 19.41807408 19.41807408 0 0 1 21.16570074-29.90383407 34.36999111 34.36999111 0 0 0 44.07902814-32.62236445 19.41807408 19.41807408 0 0 1 34.95253334-11.4566637 34.95253333 34.95253333 0 0 0 54.37060741 0 19.41807408 19.41807408 0 0 1 34.95253333 11.4566637 34.56417185 34.56417185 0 0 0 44.07902815 31.65146075 19.41807408 19.41807408 0 0 1 21.16570074 7.37886814c11.84502518 16.50536297-6.2137837 22.13660445-6.2137837 41.94304a33.98162963 33.98162963 0 0 0 22.9133274 32.03982223 19.41807408 19.41807408 0 0 1 12.23338667 24.66095407c-11.84502518 34.56417185-81.75009185-6.2137837-73.20613926-66.79817481A73.40032 73.40032 0 0 1 621.51793778 26.54814815a76.11885037 76.11885037 0 0 1-63.69128296 0 73.40032 73.40032 0 0 1-51.26371557 37.08852148 73.01195852 73.01195852 0 0 1-19.41807407 60.39021037 73.59450075 73.59450075 0 0 1 19.41807407 60.77857185A73.40032 73.40032 0 0 1 557.82665482 220.72888889a76.11885037 76.11885037 0 0 1 63.69128296 0A72.81777778 72.81777778 0 0 1 706.18074075 186.16471703a19.41807408 19.41807408 0 0 1-10.8741215 37.28270222 33.59326815 33.59326815 0 0 0-44.07902814 31.65146075 19.41807408 19.41807408 0 0 1-34.95253333 11.4566637 34.95253333 34.95253333 0 0 0-54.37060741 0 19.41807408 19.41807408 0 0 1-34.36999112-11.4566637zM231.60301037 958.6157037c-76.50721185 0-126.41166222-83.30353778-89.90568296-97.09037037a19.41807408 19.41807408 0 0 1 24.85513481 11.65084445 69.32252445 69.32252445 0 0 0 110.68302223 28.73874963 97.09037037 97.09037037 0 0 1-97.09037037-97.09037038 76.50721185 76.50721185 0 0 0-7.37886816 10.29157927 19.41807408 19.41807408 0 0 1-33.3990874-19.41807408A107.18776889 107.18776889 0 0 1 207.13623703 745.01688889a19.41807408 19.41807408 0 0 1 20.58315852 29.32129186 58.25422222 58.25422222 0 0 0 48.1568237 88.93477925c29.70965333 0 35.7292563-21.16570075 53.20552297-8.93231408 25.63185778 18.83553185-17.86462815 104.27505778-97.47873185 104.27505778zM978.03377778 667.34459259h-38.83614815a19.41807408 19.41807408 0 0 1 0-38.83614814h38.83614815a19.41807408 19.41807408 0 0 0 0-38.83614815h-19.41807408a19.41807408 19.41807408 0 0 1-19.41807407-19.41807408v-9.70903704a29.12711111 29.12711111 0 0 0-58.25422222 0v9.70903704a19.41807408 19.41807408 0 0 1-19.41807408 19.41807408h-19.41807408a19.41807408 19.41807408 0 0 0 0 38.83614815h19.41807408a19.41807408 19.41807408 0 0 1 0 38.83614814h-19.41807408a58.25422222 58.25422222 0 1 1 0-116.50844444 67.96325925 67.96325925 0 0 1 135.92651853 0 58.25422222 58.25422222 0 1 1 0 116.50844444zM939.19762963 356.65540741c-147.18900148 0-140.19849482 0-148.15990518-1.35926519A58.25422222 58.25422222 0 0 1 803.27111111 240.14696297a67.96325925 67.96325925 0 0 1 122.91640889-29.12711112 19.41807408 19.41807408 0 0 1-32.23400297 21.74824297 29.12711111 29.12711111 0 0 0-51.84625778 17.08790518v9.70903703a19.41807408 19.41807408 0 0 1-19.41807407 19.41807408h-19.41807407a19.41807408 19.41807408 0 0 0-3.88361481 38.83614814H939.19762963a19.41807408 19.41807408 0 0 0 9.51485629-36.3117985 19.41807408 19.41807408 0 0 1-7.37886814-26.40858075C955.89717333 229.07866075 997.45185185 259.56503703 997.45185185 298.40118518a58.25422222 58.25422222 0 0 1-58.25422222 58.25422223z" fill="#35214C" p-id="7922"></path><path d="M26.54814815 492.58192592a19.41807408 19.41807408 0 0 1-38.83614815 0 19.41807408 19.41807408 0 0 1 38.83614815 0z" fill="#FD8F07" p-id="7923"></path><path d="M143.05659259 647.92651852a19.41807408 19.41807408 0 0 1-38.83614814 0 19.41807408 19.41807408 0 0 1 38.83614814 0z" fill="#FDA736" p-id="7924"></path><path d="M143.05659259 278.98311111a19.41807408 19.41807408 0 0 1-38.83614814 0 19.41807408 19.41807408 0 0 1 38.83614814 0z" fill="#FED370" p-id="7925"></path><path d="M414.90962963 958.6157037a19.41807408 19.41807408 0 0 1-38.83614815 0 19.41807408 19.41807408 0 0 1 38.83614815 0z" fill="#FD7504" p-id="7926"></path><path d="M764.43496297 861.52533333a19.41807408 19.41807408 0 0 1-38.83614815 0 19.41807408 19.41807408 0 0 1 38.83614815 0z" fill="#FDA736" p-id="7927"></path><path d="M686.76266667 997.45185185a19.41807408 19.41807408 0 0 1-38.83614815 0 19.41807408 19.41807408 0 0 1 38.83614815 0z" fill="#FD8F07" p-id="7928"></path></svg>